<svg width="50" height="46" viewBox="0 0 50 46" fill="none" xmlns="http://www.w3.org/2000/svg">
<path d="M6.37872 13.8856C6.47616 11.9267 6.80954 10.6634 7.26039 9.59104L7.26646 9.57623C7.71323 8.485 8.41312 7.49645 9.31741 6.67938L9.3301 6.66792L9.34256 6.65624C10.2314 5.82323 11.3063 5.17996 12.4914 4.77002L12.5118 4.76283C13.6748 4.34675 15.0453 4.04118 17.1762 3.95155M6.37872 13.8856C6.27629 15.9785 6.25018 16.6272 6.25018 22.0537C6.25018 27.4814 6.27485 28.1287 6.37867 30.2221M6.37872 13.8856L6.37872 14.4135M7.26831 34.5321C7.7139 35.6224 8.4131 36.6113 9.31855 37.429L9.33122 37.4405L9.34366 37.4521C10.2318 38.2841 11.3064 38.928 12.4925 39.3391L12.5102 39.3452C13.6742 39.7605 15.0454 40.0662 17.1762 40.1558M7.26831 34.5321L7.26049 34.5133C6.80823 33.4434 6.47609 32.1825 6.37867 30.2221M7.26831 34.5321L7.24159 34.4027M6.37867 30.2221L6.41356 30.3911M6.37867 30.2221L6.37867 29.6928M7.24159 34.4027L6.41356 30.3911M7.24159 34.4027C6.88992 33.5479 6.52779 32.3554 6.41356 30.3911M7.24159 34.4027C7.25393 34.4327 7.26625 34.4622 7.27855 34.4914C7.72455 35.5976 8.43119 36.5991 9.34772 37.4242C10.2442 38.2672 11.3324 38.9172 12.5343 39.3275C13.4989 39.6732 14.858 40.0344 17.1759 40.1321C19.515 40.23 20.2377 40.25 26.0549 40.25C31.8721 40.25 32.5954 40.23 34.9345 40.1321C37.2553 40.0342 38.6128 39.671 39.5739 39.328C40.7766 38.9179 41.8654 38.2677 42.7621 37.4241C43.6784 36.5994 44.3848 35.5983 44.8308 34.4926C45.2065 33.6052 45.5991 32.3548 45.7053 30.2224C45.8118 28.0704 45.8335 27.4041 45.8335 22.0537C45.8335 16.7032 45.8118 16.0364 45.7053 13.8844C45.5984 11.7382 45.2 10.4874 44.8255 9.60235C44.3359 8.43952 43.715 7.56006 42.7606 6.68203C41.8082 5.80749 40.8547 5.23594 39.5899 4.78505C38.6244 4.4378 37.264 4.07351 34.9345 3.9753C34.7319 3.96682 34.5415 3.95892 34.3588 3.95157M6.41356 30.3911C6.41033 30.3357 6.40731 30.2796 6.40448 30.2229C6.39526 30.0364 6.38667 29.861 6.37867 29.6928M17.1762 3.95155C19.4517 3.85604 20.1566 3.83334 26.0549 3.83334C31.9531 3.83334 32.6578 3.85733 34.9326 3.95157M17.1762 3.95155L17.7515 3.95155M34.9326 3.95157L34.3588 3.95157M34.9326 3.95157C37.0622 4.04118 38.4355 4.34785 39.6013 4.76267L39.6173 4.76832C40.8035 5.17935 41.878 5.82325 42.7661 6.65519L42.7784 6.66675L42.791 6.6781C43.6954 7.49524 44.3952 8.48405 44.8416 9.57559L44.8493 9.59406C45.3016 10.664 45.6337 11.9248 45.7311 13.8853M17.7515 3.95155L34.3588 3.95157M17.7515 3.95155C19.6783 3.87404 20.7433 3.85736 26.0549 3.85736C31.367 3.85736 32.4317 3.87404 34.3588 3.95157M17.7515 3.95155C17.5687 3.95891 17.378 3.96681 17.1753 3.9753C14.8545 4.07315 13.497 4.4364 12.5358 4.77937C11.3287 5.19105 10.2362 5.84462 9.33759 6.69275C8.39211 7.56616 7.77326 8.44142 7.28472 9.60135C6.90725 10.4896 6.51122 11.7418 6.40446 13.885C6.39526 14.0709 6.38669 14.2458 6.37872 14.4135M45.7311 30.2221C45.6337 32.1824 45.3016 33.4439 44.8501 34.5148L44.8433 34.5311C44.3966 35.6224 43.6967 36.6109 42.7924 37.428L42.7797 37.4395L42.7672 37.4511C41.8784 38.2841 40.8035 38.9274 39.6184 39.3373L39.598 39.3445C38.435 39.7606 37.0645 40.0662 34.9336 40.1558M6.37867 29.6928C6.29442 27.9201 6.27629 26.9404 6.27629 22.0537C6.27629 17.1655 6.29441 16.1871 6.37872 14.4135M6.37867 29.6928L6.37872 14.4135M22.5325 29.8772C23.6492 30.3028 24.8462 30.5218 26.0549 30.5218C28.4961 30.5218 30.8373 29.6296 32.5635 28.0416C34.2897 26.4535 35.2594 24.2996 35.2594 22.0537C35.2594 19.8078 34.2897 17.6539 32.5635 16.0658C30.8373 14.4777 28.4961 13.5855 26.0549 13.5855C24.8462 13.5855 23.6492 13.8046 22.5325 14.2301C21.4158 14.6557 20.4011 15.2795 19.5463 16.0658C18.6916 16.8521 18.0136 17.7857 17.5511 18.8131C17.0885 19.8405 16.8504 20.9416 16.8504 22.0537C16.8504 23.1657 17.0885 24.2669 17.5511 25.2943C18.0136 26.3217 18.6916 27.2552 19.5463 28.0416C20.4011 28.8279 21.4158 29.4517 22.5325 29.8772ZM19.5258 16.0469C21.2575 14.4538 23.606 13.5589 26.0549 13.5589C28.5038 13.5589 30.8524 14.4538 32.584 16.0469C34.3156 17.64 35.2884 19.8007 35.2884 22.0537C35.2884 24.3067 34.3156 26.4673 32.584 28.0604C30.8524 29.6535 28.5038 30.5485 26.0549 30.5485C23.606 30.5485 21.2575 29.6535 19.5258 28.0604C17.7942 26.4673 16.8214 24.3066 16.8214 22.0537C16.8214 19.8007 17.7942 17.64 19.5258 16.0469ZM40.4877 11.5811C40.4877 12.2259 40.2093 12.8443 39.7137 13.3003C39.2181 13.7563 38.5458 14.0125 37.8449 14.0125C37.144 14.0125 36.4718 13.7563 35.9762 13.3003C35.4806 12.8443 35.2021 12.2259 35.2021 11.5811C35.2021 10.9362 35.4806 10.3178 35.9762 9.86183C36.4718 9.40586 37.144 9.14969 37.8449 9.14969C38.5458 9.14969 39.2181 9.40586 39.7137 9.86183C40.2093 10.3178 40.4877 10.9362 40.4877 11.5811Z" stroke="black" stroke-width="1.55963" stroke-linejoin="round"/>
</svg>
