<?xml version="1.0" encoding="UTF-8"?>
<svg id="Lag_2" data-name="Lag 2" xmlns="http://www.w3.org/2000/svg" viewBox="0 0 664.24 555.68">
  <defs>
    <style>
      .cls-1 {
        fill: none;
      }

      .cls-1, .cls-2, .cls-3, .cls-4 {
        stroke-width: 0px;
      }

      .cls-2 {
        fill: #221f20;
      }

      .cls-3 {
        fill: #fff;
      }

      .cls-4 {
        fill: #fefefe;
      }
    </style>
  </defs>
  <g id="Lag_1-2" data-name="Lag 1">
    <rect class="cls-1" x="437.24" width="227" height="170"/>
    <g>
      <path class="cls-2" d="m17.16,298.65c3.29,3.71,6.36,7.15,9.41,10.61,3.07,3.49,6.11,7,9.19,10.49.36.4.69,1.08,1.4.79.7-.28.47-.99.47-1.54,0-1.28-.36-2.37-1.28-3.39-6.19-6.83-12.32-13.71-18.46-20.58-.67-.75-1.24-1.49-1.23-2.62.04-8,.03-15.99.05-23.99,0-.31.13-.62.3-1.42,3.04,3.48,5.82,6.68,8.61,9.87,3.49,4,6.98,8,10.49,12,.29.33.37,1.05,1.05.81.59-.21.47-.83.48-1.3.04-1.55-.41-2.89-1.46-4.1-5.84-6.68-11.59-13.45-17.49-20.08-1.65-1.86-2.46-3.74-2.4-6.25.16-6.82.63-13.64.4-20.47-.02-.6-.42-1.45.47-1.73.69-.22.95.57,1.32.97,6.96,7.6,13.89,15.22,20.83,22.82,1.12,1.23,2.32,2.38,3.37,3.66.99,1.19,1.68,1.19,2.75,0,5.15-5.77,10.38-11.47,15.59-17.19,2.91-3.2,5.82-6.39,8.73-9.59.33-.36.65-.92,1.18-.8.75.17.58.91.58,1.46.05,7.66.06,15.33.17,22.99.02,1.66-1.05,2.55-1.96,3.58-6.1,6.92-12.23,13.8-18.34,20.71-1.45,1.64-2.76,3.35-1.64,6.52,7.2-8.05,14.14-15.82,21.08-23.6.28.03.56.05.84.08,0,2.33,0,4.66,0,6.99,0,5.83-.04,11.66.03,17.49.02,1.32-.59,2.21-1.4,3.06-6,6.34-12.02,12.66-18,19.02-1.46,1.55-3.23,2.99-3.03,5.48.05.56-.16,1.33.48,1.55.56.19,1.08-.32,1.48-.76,2.89-3.08,5.79-6.17,8.67-9.26,3.62-3.88,7.24-7.76,10.83-11.62,1.13.54.76,1.39.76,2.05.08,7.33.08,14.66.18,21.99.02,1.46-.44,2.5-1.47,3.51-6.42,6.29-12.78,12.65-19.19,18.96-1.07,1.05-1.66,2.15-1.66,3.71,0,16.91-.05,33.82-.08,50.73-.01,6.5-.02,13,0,19.49,0,.71-.3,1.5.55,2.34,1.89-2.54,3.78-5.03,5.62-7.54,14.3-19.51,30.3-37.44,48.96-52.93,8.13-6.75,16.75-12.75,26.36-17.21,7.82-3.63,16.05-5.55,24.64-4.19,7.05,1.11,12.72,5.01,17.29,10.49,5.81,6.98,10.57,14.55,13.42,23.25.44,1.34-.09,3.13,1.76,4.06,2.02-8.1,5.79-15.37,10.23-22.31,3.7-5.78,7.81-11.25,14.34-14.11,4.22-1.85,8.62-2.69,13.32-2.16,12.14,1.34,22.29,7.13,31.92,14.03,17.78,12.74,32.56,28.59,46.47,45.31,6.15,7.4,12.01,15.03,17.24,23.11.48.74.86,1.6,2.1,1.92,0-2.64,0-5.19,0-7.73,0-21.83-.02-43.65.04-65.48,0-2.04-.67-3.34-2.22-4.65-6.65-5.63-13.17-11.42-19.79-17.09-.94-.8-1.28-1.61-1.25-2.78.21-7.4-.38-14.81.31-22.21.05-.53-.45-1.23.25-1.54.8-.36,1.48.27,2,.73,2.25,1.97,4.42,4.03,6.62,6.05,3.79,3.49,7.59,6.97,11.39,10.46.67.62,1.37,1.19,2.29,1.41.63-3.11.45-3.51-1.78-5.51-6.35-5.72-12.64-11.5-19-17.21-1.53-1.38-2.2-2.86-2.13-4.99.23-6.82-.22-13.65.32-20.47.06-.71-.45-1.68.3-2.06.84-.43,1.53.37,2.14.94,4.32,4.02,8.62,8.08,12.97,12.08,2.31,2.12,4.69,4.15,7.19,6.36.8-2.3.13-3.88-1.36-5.28-5.8-5.48-11.48-11.08-17.4-16.43-2.77-2.5-4.5-4.96-4.23-9.03.42-6.39.11-12.82.11-19.24,0-.65-.12-1.33.4-2.14,3.14,2.17,5.56,5.12,8.3,7.69,6.08,5.67,12.1,11.41,18.02,17.26,1.55,1.53,2.45,1.34,3.83-.1,7.36-7.67,14.78-15.28,22.21-22.88.59-.6,1.04-1.57,2.25-1.41.86,8.19.37,16.41.51,24.61.02.92-.44,1.53-1.04,2.15-5.49,5.67-10.99,11.32-16.39,17.07-1.74,1.85-4.16,3.55-2.9,6.73,6.52-6.5,13.04-12.99,19.53-19.46.99.87.77,1.58.78,2.21.01,7.5-.02,14.99.03,22.49,0,1.28-.41,2.18-1.3,3.06-5.9,5.87-11.7,11.86-17.68,17.65-1.71,1.66-1.8,3.32-1.29,5.71,6.88-5.97,12.52-12.84,19.67-18.59,1.01,6.92.27,13.47.68,19.96.27,4.22-.79,7.27-4.23,10.06-5.21,4.22-9.87,9.13-14.83,13.67-1.14,1.05-1.59,2.13-1.59,3.68.02,24.91,0,49.81-.1,74.72,0,1.62.48,2.05,1.95,1.99,14.63-.59,24.32,7.02,31.47,18.91,4.32,7.18,7.8,14.77,9.43,22.96,2.14,10.72,2.2,21.41-2.49,31.71-4.72,10.38-12.8,16.99-23.3,20.64-11.14,3.88-22.64,4.63-34.4,3.38-6.63-.71-13.16-1.69-19.59-3.36-5.36-1.39-10.5-3.44-15.32-6.15-1.09-.61-1.68-.57-2.6.14-5.25,4.05-10.33,8.33-15.78,12.13-13.08,9.12-26.86,16.84-41.87,22.36-6.55,2.41-13.23,4.36-20.06,5.45-8.18,1.3-16.41,1.76-24.79.53-21.03-3.07-39.16-12.71-56.61-24-8.29-5.36-16.17-11.31-23.62-17.8-.9-.78-1.65-1.12-3.06-.63-7.95,2.74-15.93,5.39-23.99,7.81-13.27,3.98-26.93,5.53-40.64,3.89-10.87-1.3-18.66-7.82-23.72-17.6C.35,495.54-.46,483.64.19,471.51c.48-8.97,1.93-17.78,5.9-25.95,4.13-8.5,10.93-13.93,19.89-16.82,3.09-1,6.15-1.9,9.41-2.07,1.68-.09,2.3-.91,2.3-2.77-.07-24.16-.05-48.32.01-72.47,0-2.75-.83-4.77-2.84-6.8-5.89-5.97-11.47-12.24-17.19-18.38-.58-.62-1.06-1.23-1.05-2.16.03-8.08.03-16.16.05-24.23,0-.22.17-.45.49-1.2Z"/>
      <path class="cls-3" d="m180.5,404.42c-.18,11-4.22,20.6-10.53,29.42-7.65,10.69-17.52,18.97-28.34,26.23-9.85,6.61-20.26,12.14-31.06,17.03-2.06.93-2.85.16-3.84-1.22-7.01-9.8-14.45-19.25-23.13-27.63-7.07-6.83-14.86-12.69-23.91-16.69-2.29-1.01-2.2-2.5-1.38-4.42,3.23-7.55,7.99-14.11,13.3-20.26,8.76-10.15,18.57-19.18,29.65-26.8,8.28-5.7,17.04-10.48,26.69-13.4,6.24-1.89,12.74-3.01,19.19-1.91,11.11,1.9,19.99,7.64,26.36,17.04,4.62,6.82,7.1,14.32,7.02,22.62Z"/>
      <path class="cls-3" d="m195.61,403.96c-.09-10.67,3.39-19.93,10.52-27.93,4.95-5.56,10.81-9.65,18.02-11.23,4.42-.97,9.09-.79,13.59.25,15.65,3.61,28.55,12.32,40.85,22.12,6.12,4.88,11.99,10.06,17.28,15.81,7.12,7.73,14.47,15.35,19.32,24.82,2.5,4.89,3.24,3.54-1.77,7.17-5.78,4.2-11.18,8.87-16.4,13.76-9.89,9.29-19.02,19.3-27.94,29.5-1.1,1.26-1.94,1.67-3.57.83-10.51-5.45-20.82-11.21-30.46-18.11-13.4-9.59-25.52-20.41-33.5-35.19-3.52-6.52-5.89-14.93-5.96-21.81Z"/>
      <path class="cls-3" d="m187.84,426.71c2.97,7.78,6.65,15.22,11.08,22.29,10.36,16.57,23.64,30.33,39.71,41.42,4.7,3.24,9.51,6.32,14.69,8.75,1.69.79.9,1.61.12,2.46-6.29,6.86-12.74,13.57-19.33,20.16-6.89,6.89-13.99,13.52-22.05,19.01-7.27,4.96-15.08,8.87-24.12,8.71-8.1-.14-15.25-3.56-21.89-7.95-10.88-7.19-20.1-16.33-29.29-25.47-4.71-4.68-9.25-9.54-13.85-14.34-1.01-1.05-1.35-1.84.36-2.85,14.92-8.86,28.29-19.62,39.77-32.67,9.92-11.28,17.97-23.71,23.28-37.82.28-.75.6-1.36,1.51-1.7Z"/>
      <path class="cls-3" d="m335.13,476.15c0-8.24.06-16.49-.04-24.73-.02-2.13.73-3.3,2.67-4.19,8.22-3.76,16.43-3.45,23.39,2.66,3.46,3.03,5.38,7.25,6.11,11.72,1.34,8.23.13,16.23-3.66,23.7-4.4,8.68-11.52,14.04-20.78,16.84-1.84.56-3.77.55-5.53,1.27-1.56.64-2.12.02-2.11-1.54.03-3.66,0-7.33,0-10.99,0-4.91,0-9.83,0-14.74h-.03Z"/>
      <path class="cls-3" d="m37.64,476.23c0,8.32,0,16.64.01,24.96,0,1.69-.17,2.46-2.38,2-12.84-2.68-21.95-10.02-25.8-22.42-3.17-10.19-2.99-20.66,3.45-30.06,3.59-5.24,9.81-7.26,16-5.56,2.43.67,4.65,1.65,6.87,2.77,1.4.71,1.88,1.64,1.87,3.13-.04,8.4-.02,16.8-.01,25.2Z"/>
      <path class="cls-4" d="m50.78,458.27s.15.5.48.87c8.8,9.72,17.31,19.7,25.53,29.92,1.91,2.37,1.91,2.51-.9,3.81-8.01,3.73-16.11,7.25-24.64,9.68-2.04.58-2.03-.54-2.03-1.93,0-10.74,0-21.48,0-32.23,0-3,.04-5.99.1-8.99,0-.52-.17-1.27,1.46-1.14Z"/>
      <path class="cls-3" d="m323.25,458.73c.48.79.29,1.64.29,2.44.01,13.14-.03,26.27.04,39.41.01,2.03-.42,2.74-2.64,2.51-8.81-.92-16.68-4.42-24.37-8.48-1.25-.66-1.32-1.29-.5-2.51,4.87-7.32,10.34-14.18,15.98-20.91,3.09-3.68,6.2-7.34,9.29-11.01.52-.62.99-1.31,1.9-1.44Z"/>
    </g>
  </g>
</svg>